<svg id="Layer_1" data-name="Layer 1" xmlns="http://www.w3.org/2000/svg" viewBox="0 0 40 40"><defs><style>.cls-1{fill:#0a88ca;}.cls-2{fill:#fff;}</style></defs><title>Artboard 1</title><path class="cls-1" d="M20,39A19,19,0,0,1,6.56,6.56,19,19,0,0,1,33.44,33.44,18.88,18.88,0,0,1,20,39Z"/><path class="cls-2" d="M20,2A18,18,0,0,1,32.73,32.73,18,18,0,0,1,7.27,7.27,17.88,17.88,0,0,1,20,2m0-2A20,20,0,1,0,34.14,5.86,19.94,19.94,0,0,0,20,0Z"/><polygon class="cls-2" points="28.48 25.66 25.66 28.48 20 22.83 14.34 28.48 11.52 25.66 17.17 20 11.52 14.34 14.34 11.52 20 17.17 25.66 11.52 28.48 14.34 22.83 20 28.48 25.66"/></svg>