<svg id="fp_mark" xmlns="http://www.w3.org/2000/svg" viewBox="0 0 100 100">
    <title>Faith Promise Logo</title>
    <path d="M98.46,45.08a45.33,45.33,0,0,0-1.56-8.22C93.3,25.54,87,16.34,78.24,10.19A60.36,60.36,0,0,0,72.71,6.9C67.2,3.68,55.26-.3,42.9,1.41A39.79,39.79,0,0,0,33.13,4C20,9.31,9.94,18.32,4.46,31.3-.83,43.82.32,58.61,5.35,70.18,12.57,86.82,28.41,99.3,52.69,99c0-1.71,0-6.81,0-6.81V71.74h.22c2.86,6.07,13.11,9,20.22,4.67C78.59,73,80.93,67,81.65,60.65a23.8,23.8,0,0,0-.3-8.24c-2-7.21-5.07-11.83-11.55-14.44-6.72-2.71-14.29-.06-17.3,5.34-.05-.4,0-4.65,0-5.12H36.24C36.06,27.52,41.49,25.56,52,25.74V16.19c-16.81-.09-27.65,5-27.56,22H17.35A16.93,16.93,0,0,0,15.79,46c2.62,0,8.36.15,8.67.22V73.29c.92,2.28,8.76,7.18,11.78,7.56V46c1.5,0,4.16,0,4.67.06v28.6c0,2.19.34,10.41-.22,10.89-.44.27-2.42-.59-3.11-.89a50.69,50.69,0,0,1-8.22-4.22c-7.74-5.16-12.08-11.57-15.11-21.56a38.34,38.34,0,0,1-1.11-12.44,32.38,32.38,0,0,1,2-8.89c4.14-10.13,11.24-17.62,21.34-21.78a32.71,32.71,0,0,1,10.47-2.59c8.31-.78,14.48,2.16,17.53,3.48,10.73,4.64,17,12.43,20.67,24.22A40.86,40.86,0,0,1,86,57.07,50.47,50.47,0,0,1,84,66C81.16,74.6,74.94,80.5,67.79,84.86a82.86,82.86,0,0,1-8.11,3.75c-.4.32-.35.24-.56.91,0,2.83-.48,8.85.67,8.67a24.52,24.52,0,0,0,5.64-1.67A50.24,50.24,0,0,0,75.79,91.3c11.35-7.55,17-15.19,21.33-29.78a49.39,49.39,0,0,0,1.33-16.45M53.13,52.63c.81-2.75,2.42-5.77,4.66-7.11a4.13,4.13,0,0,1,2-.67c5.66-.11,8,1.89,9.33,6,1.65,5,.81,13.82-1.56,17.11a8.37,8.37,0,0,1-4.44,2.67c-8.55,2.17-12.22-10.47-10-18"/>
</svg>