<svg id="Layer_1" data-name="Layer 1" xmlns="http://www.w3.org/2000/svg" viewBox="0 0 565.34 292.25"><defs><style>.cls-1{fill:#f05133;}.cls-1,.cls-3,.cls-4{fill-rule:evenodd;}.cls-2,.cls-4{fill:#fff;}.cls-3{fill:#ec652a;}</style></defs><title>Artboard 1</title><path class="cls-1" d="M259.28,144.74c5.83,67-44.49,126.09-112.39,132.09S19.24,233.4,13.42,166.45,57.91,40.35,125.81,34.35,253.46,77.78,259.28,144.74Z"/><path class="cls-2" d="M135.75,290.29c-71,0-129.16-52.76-135.24-122.72-6.44-74,49.26-139.52,124.16-146.13,4.08-.36,8.22-.54,12.3-.54,71,0,129.15,52.76,135.24,122.72,6.43,74-49.26,139.51-124.16,146.13C144,290.11,139.82,290.29,135.75,290.29ZM137,46.83c-3.32,0-6.69.15-10,.44C66.27,52.63,21.14,105.59,26.34,165.33c4.91,56.46,51.94,99,109.41,99,3.32,0,6.68-.15,10-.44,60.67-5.36,105.81-58.33,100.61-118.06C241.46,89.4,194.42,46.83,137,46.83Z"/><path class="cls-1" d="M353.83,209.69c4.44,13.78,27.94,18.19,39.14,18,20.15-.4,37.64-10.56,50.95-25.92-1.68,2,20.89,15.21,23.28,16.34a74.57,74.57,0,0,0,45.34,5.47c8.11-1.67,16.34-5.45,22.1-11.6,10.47-11.21,14.72-27,7.57-41-3.43-6.72-4.2-13.6-.34-20.45C551,134.34,552.28,110.89,543.4,94,529.32,67.39,489.06,60.35,467.61,81c-2.45,2.35-13.22,13-11.37,16.82-7.07-22.92-37.18-32.42-60.79-27.57a133.58,133.58,0,0,0-37.79,14.52s-6.13-7.36-6.57-7.83c-4.33-4.46-8.77-8.49-14.52-11-6.94-3.07-9.73,1.72-13.24,6.24-4,5.12-7.71,10.49-11.49,15.77-8.49,11.9-17.27,23.56-25.82,35.41-2,2.73-4,5.45-5.95,8.17,2.06-11.54,4.15-22.26,6.48-33.74.84-4.17,3-9.38-1.56-12.32a48.79,48.79,0,0,0-14.85-6.14,129.12,129.12,0,0,0-20.68-3c-3.44-.17-12.31,1.13-13.73,5.64-.84,2.71.06,6.3.15,9.09.14,4.92.43,10.19.69,14.76.7,12.28.05,24.62.11,36.93q.08,20.22.19,40.43c.08,11.25-1,23.29-.87,34.54.06,4.79-1.64,14.85,3.59,17.33,3.52,1.67,7.83,2.46,11.63,3.17a52.75,52.75,0,0,0,12.57.92c4-.24,11.46-.31,12-5.37.57-5.69.5-11.62.82-17.35,0-.58.84-4.4.34-4.85,0,0,38.25,34.79,43.34,37.69,7.86,4.47,21.58-1.55,28.84-12.24,0,0,7.08-8.51-3.74-14.37,3.49-.31,5.39-.24,7.5-3.26C354.36,217.23,354.68,212.33,353.83,209.69Z"/><path class="cls-2" d="M326.37,266.71h0a28,28,0,0,1-14-3.58c-1.35-.77-4.38-2.5-23.42-19.32-3.19,5.37-9.85,10.48-23.5,11.22l-.7,0c-1.19.07-2.33.1-3.46.1a71.35,71.35,0,0,1-13-1.26c-4.6-.86-10.2-1.9-15.56-4.44-13.86-6.57-13.12-22.53-12.8-29.35,0-.83.09-1.58.08-2.21-.09-6.27.18-12.65.44-18.81.24-5.55.46-10.8.43-15.81q-.13-20.26-.2-40.48c0-4.31,0-8.65.11-13,.12-8,.23-15.61-.19-23.1-.27-4.73-.56-10.16-.7-15.22,0-.41-.09-.91-.14-1.43a30.59,30.59,0,0,1,.7-12.83c3.92-12.5,17.73-16.91,28.37-16.91.5,0,1,0,1.41,0a142.71,142.71,0,0,1,23.23,3.3A64.21,64.21,0,0,1,293.66,72a22.42,22.42,0,0,1,5.95,5.51l1.6-2.25c3-4.25,6.15-8.64,9.49-12.95l.78-1c3.05-4,9.41-12.36,21-12.36A25.9,25.9,0,0,1,343,51.28c7.81,3.43,13.56,8.46,18.55,13.5a146.13,146.13,0,0,1,30.66-10.22A78.07,78.07,0,0,1,407.9,53c16.64,0,35.12,5.32,48.29,16.78l.36-.35C467.57,58.84,482.69,53,499.1,53c24.72,0,47.65,13.18,58.42,33.58,11,20.92,10.31,50.43-1.76,71.76-.48.84-1.08,1.91.66,5.32,9.69,19,5.71,42.23-10.13,59.19-7.5,8-18.35,13.82-30.55,16.34-17.74,3.68-38.89,1.14-55.4-6.68-2.26-1.07-8.82-4.92-14-8.23l-1.54-1c-15.16,12.84-33,20-51.5,20.33h-1.13a82.83,82.83,0,0,1-26.24-4.58,26.86,26.86,0,0,1-4,7.42C353.48,258.61,339.26,266.71,326.37,266.71Zm-10.7-42c5.28,4.62,9.33,8.06,11.58,9.84a13.53,13.53,0,0,0,3.54-1.66Zm-63.84-2.7,2.21.42a41.53,41.53,0,0,0,6.28.72c0-.25,0-.51,0-.76,0-1.43.08-2.86.14-4.28L252,210.37c-.06,2.41-.09,4.78-.05,7.09,0,1.2,0,2.61-.11,4.15C251.84,221.75,251.84,221.9,251.83,222.06Zm86.47-8.76a8.86,8.86,0,0,0,.31,1.27l13.44-4.32.9-1.67q.8.43,1.54.88L369,204.79c1.45,2.59,12.65,6.9,23.12,6.9h.5c18.08-.36,31.29-11.3,39.18-20.41l24.38,20.66c5.7-6.88,3.75-16.16-.16-19.78,2.61,2.42,15,9.94,18.17,11.58a59.56,59.56,0,0,0,35,4.17C515,206.72,520,204.22,523,201c5.21-5.57,9.26-14.5,5-22.84-7.88-15.45-4.36-27.87,0-35.56,6.79-12,7.35-29.68,1.32-41.12C524,91.61,511.92,85,499.1,85c-8.12,0-15.37,2.67-20.42,7.53-3.74,3.59-6.81,7.24-7.52,8.58a11,11,0,0,0,.64-6.6l-6.92,1.22-23,9.07a17.94,17.94,0,0,1-1.13-3c-4-11-19.42-16.82-32.83-16.82a45.94,45.94,0,0,0-9.23.91A118.08,118.08,0,0,0,365.61,98.6l-44.17,25.35L338.8,87.21a52.64,52.64,0,0,0-4-3.74c-2.5,3.29-4.94,6.72-7.5,10.32l-2.43,3.42c-4.75,6.66-9.61,13.27-14.47,19.87q-5.72,7.78-11.39,15.59-2.7,3.75-5.44,7.48L253,195.57h30.06l4.76,4.32c4.19,3.81,8.25,7.47,12.08,10.9l44.86-4.14c.38,0,.72-.05,1-.1a10.1,10.1,0,0,0-6.05,3.66,8.62,8.62,0,0,0-1.45,3.09ZM251.9,92.51c.15,4.22.39,8.56.6,12.41.49,8.63.37,17.15.24,25.39-.06,4.12-.12,8.24-.1,12.36q.07,20.22.19,40.4c0,3.66-.07,7.34-.2,11l11.69-65.39c1.84-10.27,3.77-20.39,6.25-32.62a26.8,26.8,0,0,0-3.74-1.14A126.54,126.54,0,0,0,251.9,92.51Z"/><path class="cls-3" d="M144.55,281.74c-65.74,0-121.88-53.33-127.8-121.4C10.41,87.46,62.35,23.13,132.53,16.94c3.64-.32,7.33-.48,11-.48,65.75,0,121.89,53.32,127.81,121.4,6.34,72.87-45.6,137.2-115.79,143.4C151.88,281.58,148.19,281.74,144.55,281.74Zm-1-262.27c-3.55,0-7.15.16-10.71.47-68.53,6-119.24,68.91-113,140.13,5.79,66.53,60.61,118.65,124.8,118.65,3.55,0,7.15-.16,10.71-.47,68.53-6.06,119.24-68.92,113-140.13C262.52,71.59,207.7,19.47,143.5,19.47Z"/><path class="cls-3" d="M146.9,292.25c-65.74,0-121.88-53.33-127.8-121.4C12.76,98,64.69,33.65,134.88,27.44c3.64-.32,7.33-.48,11-.48,65.75,0,121.9,53.33,127.82,121.4C280,221.23,228,285.56,157.87,291.76,154.23,292.08,150.54,292.25,146.9,292.25ZM145.84,30c-3.55,0-7.14.16-10.7.47C66.61,36.5,15.9,99.37,22.1,170.58c5.79,66.53,60.6,118.65,124.8,118.65,3.55,0,7.15-.16,10.71-.47,68.52-6.05,119.24-68.92,113-140.13C264.87,82.09,210,30,145.84,30Z"/><path class="cls-3" d="M122.28,283.06c-60.65,0-112.35-48.25-117.71-109.84C-1.17,107.17,46.92,48.78,111.77,43c3.43-.3,6.91-.46,10.34-.46,60.64,0,112.35,48.25,117.71,109.85,5.74,66.05-42.35,124.44-107.21,130.16C129.18,282.91,125.7,283.06,122.28,283.06Zm-.17-237.53c-3.34,0-6.73.15-10.08.45C48.78,51.56,1.89,108.53,7.5,173c5.23,60.09,55.65,107.16,114.78,107.16,3.34,0,6.73-.15,10.07-.45,63.24-5.57,110.14-62.54,104.54-127C231.66,92.6,181.24,45.53,122.11,45.53Z"/><path class="cls-3" d="M326.37,258.88h0a20.27,20.27,0,0,1-10.15-2.56c-3.61-2.06-17.61-14.29-32-27.17-.09,1.8-.21,3.62-.39,5.43-1.19,11.68-14.48,12.4-18.85,12.64l-.74,0a59.14,59.14,0,0,1-14.55-1c-4.15-.77-9.19-1.71-13.63-3.82-9.15-4.34-8.62-15.76-8.33-21.9,0-1,.1-1.92.09-2.68-.09-6.06.18-12.32.44-18.38.23-5.41.47-11,.44-16.21q-.13-20.24-.19-40.46c0-4.27,0-8.55.11-12.83.12-8.17.24-15.89-.21-23.66-.26-4.66-.55-10-.69-15,0-.63-.11-1.34-.19-2.07-.3-2.74-.68-6.16.4-9.66,2.82-9,14.45-11.39,20.88-11.39l1,0a135.34,135.34,0,0,1,22,3.13,56.67,56.67,0,0,1,17.58,7.27C297.73,84,296,92.93,295,97.23q5.13-7,10.19-14.05l2.4-3.37c3-4.18,6-8.51,9.29-12.68l.83-1.08c2.81-3.69,7.05-9.27,14.8-9.27a18.12,18.12,0,0,1,7.33,1.67c7.11,3.12,12.4,8,17.06,12.78,1.06,1.12,2,2.15,2.88,3.1a140.25,140.25,0,0,1,34-12.09,70.21,70.21,0,0,1,14.09-1.4c17.36,0,36.91,6.34,48.34,20.17,1.6-1.8,3.49-3.77,5.73-5.92,9.56-9.19,22.75-14.25,37.13-14.25,21.85,0,42.06,11.54,51.5,29.41,9.86,18.69,9.18,45.1-1.65,64.24-1.46,2.59-2.74,6.39.5,12.74,8.29,16.28,4.9,35.54-8.87,50.28-6.4,6.85-15.78,11.82-26.41,14-16.12,3.36-35.46,1-50.47-6.08a142.22,142.22,0,0,1-19.62-12c-14.75,14.31-32.22,22-51,22.4h-1c-8.49,0-22.45-2-33-8.31l.08.39c1.32,6.83-2.27,12.25-3.58,14C348.6,252,336.87,258.88,326.37,258.88ZM256,203.41h24l2.52,2.28c21.64,19.64,38.83,34.66,41.79,36.52a4.42,4.42,0,0,0,2,.38c4.46,0,11.66-3.8,16-10.17l.48-.63a3.74,3.74,0,0,0,.35-.78,6.76,6.76,0,0,0-1.71-1.22l-23.75-12.85,27.72-2.49.63,0a7.63,7.63,0,0,0,0-2.29l15.52-4.93c2.56,7.94,19.7,12.33,30.58,12.33h.65c21-.42,36-12.8,45-23.11l12.43,10.53c2.7-3.26,1.93-7.52.37-9.21,2.44,2.64,17.16,11.53,20.15,13a67.25,67.25,0,0,0,40.17,4.84c7.37-1.52,13.69-4.79,17.81-9.19,7-7.51,12.36-19.81,6.27-31.75-6.3-12.36-3.58-22.13-.18-28.15,8.12-14.35,8.72-34.8,1.43-48.63C529.55,85.26,515,77.13,499.1,77.13c-10.15,0-19.33,3.45-25.85,9.71-5,4.79-8.67,9.43-9.22,11a4.29,4.29,0,0,0,.05-2l-2.15.38-13,5.13a10,10,0,0,1-.69-1.88C443,84.12,423.69,77.13,407.9,77.13a53.76,53.76,0,0,0-10.81,1.07,124.49,124.49,0,0,0-35.38,13.6l-22.55,12.94L348.06,86c-1.34-1.6-2.66-3.17-3-3.56-3.87-4-7.45-7.14-11.77-9l-.38-.16a31.5,31.5,0,0,0-2.22,2.72l-.94,1.22c-3,3.89-6,8.07-8.87,12.11l-2.42,3.4c-4.74,6.64-9.58,13.22-14.41,19.79-3.83,5.2-7.65,10.4-11.43,15.64q-2.69,3.74-5.43,7.46l-.55.75L272,130.06c1.9-10.62,3.91-21.08,6.51-33.93.14-.69.31-1.4.48-2.14s.39-1.63.51-2.35a41.38,41.38,0,0,0-11.1-4.39,120.09,120.09,0,0,0-19.4-2.8,21.11,21.11,0,0,0-5.53.94c.05.65.14,1.45.2,2,.13,1.18.25,2.32.28,3.37.14,4.87.42,10.06.68,14.56.48,8.35.35,16.73.23,24.83-.06,4.17-.13,8.35-.11,12.52q.07,20.22.19,40.42c0,5.61-.21,11.41-.45,17-.25,5.83-.51,11.85-.42,17.45,0,1.05,0,2.3-.1,3.67a37.38,37.38,0,0,0,.1,6.88,52.4,52.4,0,0,0,8.48,2.06,44.44,44.44,0,0,0,10.72.81l.8,0c.85,0,2.47-.13,3.72-.32.18-2.55.26-5.19.34-8,.07-2.25.13-4.5.25-6.71,0-.22.05-.58.11-1Z"/><path class="cls-3" d="M353.83,209.69c4.44,13.78,27.94,18.19,39.14,18,20.15-.4,37.64-10.56,50.95-25.92-1.68,2,20.89,15.21,23.28,16.34a74.57,74.57,0,0,0,45.34,5.47c8.11-1.67,16.34-5.45,22.1-11.6,10.47-11.21,14.72-27,7.57-41-3.43-6.72-4.2-13.6-.34-20.45C551,134.34,552.28,110.89,543.4,94,529.32,67.39,489.06,60.35,467.61,81c-2.45,2.35-13.22,13-11.37,16.82-7.07-22.92-37.18-32.42-60.79-27.57a133.58,133.58,0,0,0-37.79,14.52s-6.13-7.36-6.57-7.83c-4.33-4.46-8.77-8.49-14.52-11-6.94-3.07-9.73,1.72-13.24,6.24-4,5.12-7.71,10.49-11.49,15.77-8.49,11.9-17.27,23.56-25.82,35.41-2,2.73-4,5.45-5.95,8.17,2.06-11.54,4.15-22.26,6.48-33.74.84-4.17,3-9.38-1.56-12.32a48.79,48.79,0,0,0-14.85-6.14,129.12,129.12,0,0,0-20.68-3c-3.44-.17-12.31,1.13-13.73,5.64-.84,2.71.06,6.3.15,9.09.14,4.92.43,10.19.69,14.76.7,12.28.05,24.62.11,36.93q.08,20.22.19,40.43c.08,11.25-1,23.29-.87,34.54.06,4.79-1.64,14.85,3.59,17.33,3.52,1.67,7.83,2.46,11.63,3.17a52.75,52.75,0,0,0,12.57.92c4-.24,11.46-.31,12-5.37.57-5.69.5-11.62.82-17.35,0-.58.84-4.4.34-4.85,0,0,38.25,34.79,43.34,37.69,7.86,4.47,21.58-1.55,28.84-12.24,0,0,7.08-8.51-3.74-14.37,3.49-.31,5.39-.24,7.5-3.26C354.36,217.23,354.68,212.33,353.83,209.69Z"/><path class="cls-3" d="M326.37,251h0a12.51,12.51,0,0,1-6.27-1.53c-4.56-2.6-35.37-30.45-42.73-37.13a23.37,23.37,0,0,1-.38,3.18c-.07.41-.12.73-.13.86-.12,2.14-.18,4.36-.24,6.5-.11,3.59-.22,7.3-.57,10.87-.51,5-7.37,5.37-11.47,5.59l-.78,0a52.38,52.38,0,0,1-12.65-.92l-.09,0c-3.79-.71-8.09-1.51-11.61-3.18-4.43-2.1-4.1-9.24-3.85-14.45.05-1.16.11-2.26.09-3.15-.09-5.85.18-12,.43-17.94.23-5.5.48-11.19.44-16.6-.08-12-.14-24.83-.19-40.43,0-4.23,0-8.53.11-12.68.12-8,.24-16.17-.22-24.23-.28-5.08-.55-10-.69-14.77,0-.84-.13-1.75-.23-2.71-.25-2.23-.5-4.54.1-6.48,1.5-4.78,10.39-5.86,13.39-5.86h.64a127.87,127.87,0,0,1,20.73,3,48.9,48.9,0,0,1,14.95,6.18c4.05,2.63,3,7,2.12,10.78-.15.64-.3,1.26-.42,1.86-2.49,12.26-4.43,22.33-6.25,32.45,1.73-2.37,3.46-4.73,5.17-7.11,3.8-5.26,7.7-10.57,11.47-15.7,4.73-6.43,9.63-13.09,14.35-19.71l2.4-3.38c2.92-4.11,6-8.37,9.09-12.4L324,70.8c2.42-3.18,4.7-6.18,8.56-6.18a10.25,10.25,0,0,1,4.16,1c5.57,2.44,9.87,6.2,14.62,11.08.26.27,2.28,2.69,3.46,4.1,1.8,2.14,2.6,3.1,2.94,3.56a133.31,133.31,0,0,1,37.68-14.43,62.45,62.45,0,0,1,12.51-1.24c19,0,41,8.39,48,27.09,1.12-4.72,8.93-12.52,11.53-15,8.1-7.79,19.36-12.07,31.7-12.07,19,0,36.47,9.9,44.56,25.23,8.68,16.45,8,39.78-1.54,56.72-3.51,6.23-3.4,12.82.34,20.17,6.75,13.25,3.83,29.1-7.62,41.36-5.3,5.67-13.21,9.82-22.26,11.69a69,69,0,0,1-14,1.39,75.28,75.28,0,0,1-31.57-6.88c-1.7-.8-21.63-12.25-23.41-15.86C429.32,218.78,411.81,227.58,393,228h-.82c-11.86,0-31.64-4.33-37.6-15.77.16,2.59-.3,5.69-1.46,7.35-2,2.84-3.81,3.05-6.76,3.3,3,1.79,4.71,4,5.19,6.51.8,4.16-2.08,7.68-2.21,7.83C343.79,245.33,334.35,251,326.37,251Zm-49.24-39.68.17.15c6.39,5.8,38.48,34.85,43.09,37.48a12,12,0,0,0,6,1.45c7.79,0,17-5.59,22.47-13.59,0-.06,2.84-3.48,2.09-7.36-.5-2.57-2.43-4.78-5.74-6.57l-.88-.48,1.77-.16c3-.25,4.63-.39,6.5-3.06,1.46-2.09,1.74-6.93.94-9.42l.57-.19h0c4.17,12.94,25.55,17.77,38,17.77h.8c18.88-.37,36.42-9.3,50.73-25.81l.46.39s0,0,0,.14c.61,2.73,20.91,14.66,23.19,15.73a74.68,74.68,0,0,0,31.32,6.82,68.15,68.15,0,0,0,13.83-1.37c8.93-1.84,16.72-5.93,21.94-11.51,11.28-12.07,14.16-27.65,7.52-40.67-3.84-7.54-4-14.32-.33-20.74,9.49-16.77,10.12-39.86,1.53-56.14-8-15.13-25.27-24.9-44-24.9-12.19,0-23.3,4.23-31.28,11.9-2,2-12.18,11.93-11.46,16l.17.51-.56.22a2.29,2.29,0,0,1-.2-.62c-6.33-19.34-28.61-28-47.87-28a61.71,61.71,0,0,0-12.39,1.23A132.67,132.67,0,0,0,357.8,85l-.8.46.3-.67c-.83-1-6-7.21-6.44-7.67-4.69-4.83-8.94-8.54-14.42-10.94a9.71,9.71,0,0,0-3.92-.95c-3.57,0-5.76,2.88-8.08,5.94l-.89,1.15c-3.13,4-6.15,8.27-9.07,12.38l-2.41,3.38c-4.72,6.62-9.62,13.28-14.35,19.71-3.78,5.13-7.68,10.44-11.47,15.7-1.79,2.49-3.59,5-5.4,7.43l-1.32,1.8.23-1.28c1.89-10.56,3.88-21,6.48-33.75.12-.61.27-1.24.43-1.88.9-3.8,1.84-7.73-1.86-10.13a48.21,48.21,0,0,0-14.74-6.1,127.22,127.22,0,0,0-20.64-3c-3.25-.15-12.06,1.07-13.42,5.42-.56,1.82-.31,4.06-.07,6.23.11,1,.21,1.89.24,2.76.13,4.74.4,9.68.69,14.76.46,8.08.34,16.31.22,24.27-.06,4.15-.13,8.45-.11,12.67.06,15.61.12,28.45.19,40.43,0,5.43-.21,11.12-.44,16.63-.25,5.94-.52,12.08-.43,17.91,0,.91,0,2-.09,3.18-.23,5-.56,12,3.51,13.88,3.45,1.64,7.71,2.43,11.47,3.13l.09,0a53.08,53.08,0,0,0,12.5.91l.79,0c4.16-.23,10.45-.57,10.9-5.05.36-3.54.46-7.25.57-10.83.06-2.14.13-4.36.24-6.51,0-.14.06-.48.13-.92.13-.83.54-3.34.3-3.7l-.57-.52h.78a.24.24,0,0,1,.2.08h0Z"/><polygon class="cls-3" points="228.05 5.63 228.24 31.12 252.36 38.78 228.37 46.87 228.56 72.36 213.54 51.86 189.54 59.96 204.26 39.2 189.22 18.72 213.35 26.38 228.05 5.63"/><path class="cls-2" d="M230.41,77.95,212.87,54l-28,9.45L202,39.22,184.48,15.31l28.16,8.95L229.82,0,230,29.79l28.13,8.94-28,9.43ZM214.22,49.73l12.48,17-.15-21.2,20-6.74-20.1-6.39-.16-21.19L214.06,28.51,194,22.12l12.52,17.06L194.24,56.47Z"/><path class="cls-3" d="M259.28,144.74c5.83,67-44.49,126.09-112.39,132.09S19.24,233.4,13.42,166.45,57.91,40.35,125.81,34.35,253.46,77.78,259.28,144.74Z"/><path class="cls-4" d="M236,120c-2.52-5.9-4.69-11-7.88-15.78-13.93-20.9-32.44-36.06-54.45-43.72-5.45-1.91-7.7-2.13-13.57-3.64-13.44-3.49-41-5-66.28,5.14A89.22,89.22,0,0,0,74.49,72.42c-24.94,18-41.2,41.65-45.6,70.86-4.3,28.18,6.38,57.44,23.48,78.11C76.93,251,117.5,267.65,168.84,253.82c-1-3.46-3.81-13.75-3.81-13.75q-5.68-20.67-11.37-41.31a4,4,0,0,0,.49-.12c9.46,10.7,32.85,11.11,45.52-1.59,9.71-9.77,11.34-23.21,9.33-36.47-1.08-7.06-3.13-13.08-5.22-16.48-8.22-13.5-17.32-21.16-32.54-22.9-15.78-1.81-30.39,7.64-33.75,20.2-.33-.79-2.63-9.39-2.92-10.32l-34.44,8.81c-6.29-21.44,4.14-28.36,26.56-33.72l-5.29-19.31c-35.71,9-55.93,25.06-46.26,59.45q-7.54,1.9-15.1,3.85a34,34,0,0,0,1,16.58c5.56-1.47,17.81-4.26,18.52-4.29q7.54,27.41,15.08,54.82c3.2,4.1,22.59,9.72,29.19,8.85q-9.71-35.23-19.4-70.5c3.19-.85,8.83-2.3,9.92-2.42,5.3,19.15,10.66,38.65,15.92,57.8,1.22,4.44,6.49,20.86,5.57,22.14-.8.77-5.46.12-7.1-.11-7.37-1-13.41-2-19.79-4-19.31-6.24-32.06-16.81-44.05-35.36-3.07-4.74-8.13-16.47-9.28-24.52-1.09-7.76-1.52-13-.69-19.07,3.16-22.73,14-41.73,33.18-55.62a73.59,73.59,0,0,1,20.79-10.93C126.13,77.4,140.84,80,148.06,81c25.31,3.54,43,15.83,57.31,37.71,5,7.61,9.4,20.2,10.92,32.29A103,103,0,0,1,217,170c-1.25,19-11.2,34.31-24,47-6.11,5.71-10.26,8.21-15.1,12-.68.85-.62.68-.7,2.16,1.5,5.71,3.93,18.15,6.25,17.14,2.89-1,7.86-4.17,11-6.45,8.27-6,12.82-9.44,19.08-16.18,19.9-21.44,27.6-39.91,28.73-71.78C242.6,146.25,240.33,130.16,236,120Zm-92,39.93c.18-6,1.92-13,5.93-16.91a9.56,9.56,0,0,1,3.9-2.43c11.94-3.31,18-.54,23.13,7,6.28,9.29,9.36,27.51,6.2,35.42-1.18,3-4.65,6.06-8,7.81C158.28,199.86,143.45,176.31,144,159.88Z"/><path class="cls-2" d="M318.92,203.82c2.68,3.09,5.34,6.09,7.94,8.94s5.1,5.48,7.45,7.87,4.42,4.38,6.19,5.95,2.66,2.73,2.45,3.81-1.33,2.23-3.33,3.5a22.24,22.24,0,0,1-4.22,2.35,32.55,32.55,0,0,1-4.87,1.67,18.89,18.89,0,0,1-7.65,1.44q-4-.09-8.44-3.85c-1.19-1.06-2.85-2.49-4.94-4.3s-4.39-3.94-6.89-6.31-5.12-4.91-7.86-7.6-21.53-22.81-23.91-25.5q-.71,10-1.16,18.28t-.81,15.08a3.7,3.7,0,0,1-.65,3.15,4.31,4.31,0,0,1-2.81,1.12,20.12,20.12,0,0,1-4.68-.3c-1.86-.3-3.89-.62-6.08-.94q-6.76-.93-10-3.2c-2.15-1.53-3.35-4.11-3.61-7.78q-.48-5.18-.77-13.61T240,185c-.05-6.79,0-13.91,0-21.36s.22-14.75.42-21.93.45-14,.74-20.4.18-26.67.57-31.41c.44-2.85,1.4-4.7,2.87-5.53s3.66-1,6.58-.48a62.71,62.71,0,0,1,10.37,2.25c3.72,1.13,6.84,1.08,9.67,2.5,1.57.8,5.43,1.18,6.39,1.8s3,1.14,3.46,1.87a4.7,4.7,0,0,1,.75,2.52c0,1-3.33,18.57-3.57,19.89q-1.26,7.8-2.25,17.74t-2.06,21.76q5.27-7.56,11.43-16.22t12-17.06q5.82-8.39,10.88-15.94c3.37-5,18.41-23.88,20.54-27.35q2.08-3.56,4.25-3.84c1.65-.21,3.59.43,5.84,1.95a27.59,27.59,0,0,1,6.06,5.5,76.6,76.6,0,0,1,4.88,6.86,13.9,13.9,0,0,1,1.58,6.23,20.64,20.64,0,0,1-2.18,8.07c-1.77,4-16.54,23.17-19.7,28.23S322.83,140.9,319,146.24s-7.82,10.67-12,16-8.12,10.35-11.87,15C297.5,180.25,316.23,200.73,318.92,203.82Z"/><path class="cls-2" d="M357.4,153.56a4.3,4.3,0,0,1,.24,3.25c-.68,2.48-1.41,5.32-2.16,8.51s-1.51,6.55-2.24,10.08-1.42,7.13-2.09,10.82-1.32,7.29-1.93,10.8-1.18,6.84-1.68,10-.9,5.91-1.23,8.35a2.92,2.92,0,0,1-1.17,1.92,7.45,7.45,0,0,1-3.58.38c-1.84-.15-3.59-.29-5.25-.45a31.67,31.67,0,0,1-4.78-.81,6.29,6.29,0,0,1-3.39-1.6,4.48,4.48,0,0,1-.86-3.13c-.08-1.85-.08-4.27,0-7.23s.26-6.24.49-9.78.53-7.29.9-11.22.73-7.81,1.15-11.57.87-7.38,1.36-10.77,1-6.37,1.42-8.94A4.47,4.47,0,0,1,334.8,149a9.87,9.87,0,0,1,4.83-.43,54.54,54.54,0,0,1,7.15,1,51.63,51.63,0,0,1,6.83,1.83C355.68,152.15,356.93,152.87,357.4,153.56Z"/><path class="cls-2" d="M370.95,91.44a90.27,90.27,0,0,1,15.38-6.19A84.73,84.73,0,0,1,403.41,82a55.7,55.7,0,0,1,17.39,1.18,49.19,49.19,0,0,1,16.27,7.11,48.58,48.58,0,0,1,13.73,14.57,49.51,49.51,0,0,1,7.2,16.73,61.39,61.39,0,0,1,1.28,19.54,76.74,76.74,0,0,1-4.89,20.79,84,84,0,0,1-11.3,20.34,98.27,98.27,0,0,1-17.88,18.19,108,108,0,0,1-24.64,14.42q-7.08,3.61-15.68.68a74.13,74.13,0,0,1-7.61-3.15q-3.29-1.6-7.57-4c-1.08-.75-2.1-1.5-3.07-2.21a13,13,0,0,1-2.6-2.59,10.6,10.6,0,0,1-1.74-3.83,26.93,26.93,0,0,1-.59-6.07l-3-94.74A90.89,90.89,0,0,1,370.95,91.44Zm37,87.06a76.28,76.28,0,0,0,11.59-16.1,62.77,62.77,0,0,0,6-16.06,54.71,54.71,0,0,0,1.34-14.4q-.52-9.07-3.75-13.75c-2.15-3.12-5.51-5.23-10.06-6.33s-9.86-.23-15.89,2.65q-2.72,20-4.33,39.29t-2.91,39A78.69,78.69,0,0,0,407.91,178.5Z"/><path class="cls-2" d="M452.79,185.09a24.31,24.31,0,0,1,5.84-1.06,26.66,26.66,0,0,1,5.79.32,18.12,18.12,0,0,1,5.15,1.64q13.1,6,22.45,7t13-2.73a1.92,1.92,0,0,0,.31-2.88,13.41,13.41,0,0,0-4.11-3.43q-2.94-1.8-7.25-3.88t-9.07-4.28c-3.18-1.5-6.37-3-9.55-4.6a83.7,83.7,0,0,1-8.8-5,44.83,44.83,0,0,1-7.94-6.39,32.57,32.57,0,0,1-5.94-8.23,32.22,32.22,0,0,1-3.14-10,34.6,34.6,0,0,1,.34-11.59A48.76,48.76,0,0,1,453,118.62a83.17,83.17,0,0,1,6-12.15,84.83,84.83,0,0,1,8-11.38,70.5,70.5,0,0,1,9.34-9.3,30.21,30.21,0,0,1,4.33-3.18A25.94,25.94,0,0,1,486.6,80,32.46,32.46,0,0,1,494,78.66a35.33,35.33,0,0,1,8.53.47,106.89,106.89,0,0,1,13.76,4.06,45,45,0,0,1,11.84,6.26,22,22,0,0,1,5.08,4.81A21.54,21.54,0,0,1,536,99.37a24.31,24.31,0,0,1,1.36,5c.24,1.62.45,3.17.63,4.64a83.13,83.13,0,0,1-.38,8.88q-.45,4.86-1.16,9.82c-.49,3.31-1.07,6.5-1.78,9.58a74.66,74.66,0,0,1-2.25,8.09c-.83,2.1-1.84,3.48-3,4.13s-3,.69-5.29.08q-20.6-4.52-20.65-16.95a33.06,33.06,0,0,1,.23-6c.26-2.27.52-4.56.79-6.84s.45-4.46.6-6.52a17.31,17.31,0,0,0-.24-5c-.3-1.26-.85-1.94-1.65-2s-2,.62-3.72,2.12a31.68,31.68,0,0,0-4.73,4.67,50.85,50.85,0,0,0-4.85,6.77,47.94,47.94,0,0,0-3.89,8,28,28,0,0,0-1.85,8.33,19.57,19.57,0,0,0,1.09,7.8,12.61,12.61,0,0,0,5,6.23,74.54,74.54,0,0,0,10.28,6.31c3.73,1.92,7.44,3.76,11.15,5.53s7.21,3.54,10.51,5.3a41.39,41.39,0,0,1,8.38,5.74,16.43,16.43,0,0,1,4.66,6.75,11.76,11.76,0,0,1-.53,8.22,40.82,40.82,0,0,1-3.25,7.16,30,30,0,0,1-6.17,7.47,41.37,41.37,0,0,1-10,6.45,51.49,51.49,0,0,1-14.69,4.15A56.13,56.13,0,0,1,477.47,212q-11.59-3.07-24.69-12.62-6.91-4.64-7.53-7.27a5,5,0,0,1,2.22-4.77A29.19,29.19,0,0,1,452.79,185.09Z"/><polygon class="cls-2" points="338.73 115.78 346.93 126.89 359.89 122.36 352.02 133.76 360.23 144.88 347.15 140.81 339.26 152.21 339.06 138.29 325.98 134.22 338.93 129.69 338.73 115.78"/></svg>